<?xml version="1.0" encoding="utf-8"?>
<!-- Generator: Adobe Illustrator 26.1.0, SVG Export Plug-In . SVG Version: 6.00 Build 0)  -->
<svg version="1.1" id="Layer_1" xmlns="http://www.w3.org/2000/svg" xmlns:xlink="http://www.w3.org/1999/xlink" x="0px" y="0px"
	 viewBox="0 0 257.7 176.2" style="enable-background:new 0 0 257.7 176.2;" xml:space="preserve">
<style type="text/css">
	.st0{clip-path:url(#SVGID_00000090252897383398756020000013401602686844951725_);}
	.st1{clip-path:url(#SVGID_00000105405292924710091700000008561958676606685330_);}
	.st2{fill:#048404;}
	.st3{fill:#AF0808;}
	.st4{fill:#025602;}
	.st5{enable-background:new    ;}
	.st6{clip-path:url(#SVGID_00000042738175485188292580000008053724133373755801_);}
</style>
<g id="Layer_2_00000057138736797625320760000015122464699382077573_">
	<g id="Layer_2-2">
		<g id="EONS_Emirates_Oncology_Nursing_Society_">
			<g>
				<defs>
					<rect id="SVGID_1_" x="-0.7" y="0" width="259.1" height="176.1"/>
				</defs>
				<clipPath id="SVGID_00000108279915735084881270000017215641134595220366_">
					<use xlink:href="#SVGID_1_"  style="overflow:visible;"/>
				</clipPath>
				<g style="clip-path:url(#SVGID_00000108279915735084881270000017215641134595220366_);">
					<g>
						<defs>
							<rect id="SVGID_00000015324131030521418350000000083007677385973396_" x="-0.7" y="0" width="259.1" height="176.1"/>
						</defs>
						<clipPath id="SVGID_00000020386380448932641330000000576003547242437508_">
							<use xlink:href="#SVGID_00000015324131030521418350000000083007677385973396_"  style="overflow:visible;"/>
						</clipPath>
						<g style="clip-path:url(#SVGID_00000020386380448932641330000000576003547242437508_);">
							<path class="st2" d="M147,81.5c-23.8,8.2-49.6-4.5-57.8-28.2c-4.9-14.2-2.4-29.9,6.5-41.9c-21.8,18.6-24.4,51.3-5.9,73.1
								s51.3,24.4,73.1,5.9c16.2-13.8,22.3-36.2,15.4-56.3c-0.4-1.3-0.9-2.5-1.5-3.8C181.1,52.4,168.3,74.2,147,81.5"/>
							<path class="st3" d="M108.4,81.2c-17.8-17.8-17.8-46.6,0-64.3C119,6.2,134.2,1.5,149,4.3C122.7-7.1,92.2,4.9,80.7,31.1
								s0.6,56.8,26.8,68.2c19.5,8.5,42.3,4.2,57.4-10.9c1-1,1.9-2,2.8-3C149.6,98.9,124.4,97.1,108.4,81.2"/>
							<path d="M114.7,28.6c0-4.3-0.1-8.6-0.4-12.8c2.8,0.2,7.8,0.2,10.5,0.2c2.7,0,5.5-0.1,8.1-0.2c-0.1,0.5-0.1,1-0.1,1.5
								c0,0.5,0,1,0.1,1.5l-5.2-0.5c-1.7-0.1-6.2-0.2-9.1-0.2c-0.1,2-0.2,4.1-0.2,6.3c0,2.9,0,5,0.1,6.5c4.4,0.1,8.9-0.1,13.3-0.5
								c-0.1,0.5-0.1,1-0.1,1.5c0,0.5,0,1,0.1,1.5c-4.1-0.3-10.1-0.4-13.3-0.4c0,0.6,0,3,0,7.2c0,3.7,0,6.2,0.1,7.4
								c2.1,0,6.6,0,8.9-0.2c1.9,0,3.8-0.2,5.6-0.5c-0.1,0.5-0.2,1-0.2,1.5c0,0.5,0.1,1,0.2,1.5c-2.7-0.2-5.4-0.2-8.2-0.2
								c-2.8,0-7.8,0.1-10.6,0.2c0.2-4.3,0.3-8.6,0.4-12.9L114.7,28.6z"/>
							<path d="M128.4,37.5c0-5.7,1.6-10.1,4.8-13.2c3.2-3.1,7.3-4.6,12.2-4.6c5.1,0,9.2,1.5,12.3,4.6s4.7,7.5,4.7,13.2
								c0,5.6-1.6,10-4.7,13c-3.2,3-7.3,4.6-12.3,4.7c-5.1,0-9.1-1.6-12.2-4.7C130.1,47.3,128.5,43,128.4,37.5 M158,37.5
								c-0.1-5.5-1.3-9.5-3.6-12.1c-2.3-2.5-5.6-3.9-9-3.8c-3.4-0.1-6.6,1.3-8.9,3.8c-2.4,2.6-3.6,6.7-3.6,12.1
								c0,5.5,1.2,9.5,3.6,12c2.2,2.6,5.5,4,8.9,3.9c3.4,0.1,6.7-1.3,9-3.9C156.8,46.9,158,42.9,158,37.5"/>
							<path d="M150.3,83.3c-7.2-9.1-14.9-18.2-23-27.5c-0.1,1.7-0.1,5-0.1,10.1c0,2.4,0,5.5,0.1,9.2s0.2,6.2,0.3,7.5
								c-0.5-0.2-1-0.2-1.6-0.2c-0.6,0-1.1,0.1-1.7,0.2c0.2-1.6,0.4-4.6,0.6-9.2s0.3-8.7,0.3-12.3c0-6.4,0-10.9-0.1-13.3h0.7
								c8.6,10.3,16.3,19.2,23,26.8c0-9.3-0.1-13.2-0.4-21.3c0.5,0.2,1,0.2,1.5,0.2c0.5,0,1-0.1,1.4-0.2c-0.5,3.9-0.7,7.8-0.7,11.8
								c0,7.5,0.1,13.6,0.1,18.3L150.3,83.3z"/>
							<path d="M151.3,76.4c0.5,1.3,1.4,2.5,2.5,3.4c1.3,1.2,3,1.8,4.7,1.7c1.8,0.1,3.6-0.7,4.8-2.1c1.2-1.4,1.8-3.2,1.7-5.1
								c0-1-0.2-2-0.6-2.9c-0.4-0.8-0.9-1.5-1.6-2c-0.7-0.6-1.5-1.1-2.3-1.5c-0.9-0.4-1.8-0.8-2.7-1.1c-0.9-0.4-1.7-0.9-2.6-1.4
								c-0.9-0.5-1.7-1.1-2.4-1.8c-1.5-1.3-2.2-3.4-2.3-6.2c-0.1-2.5,0.9-5,2.7-6.8c2-1.7,4.5-2.7,7.2-2.6c2.5-0.1,4.8,0.7,6.7,2.3
								c-0.6,1.3-1,2.7-1.2,4.2h-0.5c-0.1-0.6-0.4-1.1-0.6-1.6c-0.3-0.5-0.6-1-1-1.5c-0.4-0.5-1-0.9-1.6-1.1
								c-0.7-0.3-1.5-0.5-2.2-0.5c-1.6-0.1-3.1,0.6-4.2,1.7c-1.7,2-2.1,4.9-1,7.3c0.4,0.8,1,1.5,1.6,2c0.7,0.6,1.5,1,2.4,1.4
								c0.8,0.4,1.7,0.9,2.5,1.3c1.8,0.7,3.5,1.7,5,2.9c0.7,0.7,1.3,1.5,1.6,2.4c0.4,1.1,0.6,2.4,0.6,3.6c0.1,2.9-1,5.7-2.9,7.8
								c-1.9,2.2-4.7,3.2-8.2,3.3c-1.6,0-3.1-0.3-4.5-1c-1.1-0.5-2.1-1.1-3-1.9c0.5-1.4,0.8-2.9,0.9-4.4L151.3,76.4z"/>
							<path class="st4" d="M146.3,16c12,0,21.8,9.8,21.8,21.8c0,0.7,0,1.4-0.1,2.1c3-10.4-3-21.3-13.4-24.3
								c-4.7-1.3-9.7-0.9-14,1.2C142.4,16.3,144.3,16,146.3,16"/>
						</g>
					</g>
					<g class="st5">
						<path d="M88.5,114.9h7c0,0.1,0,0.3-0.1,0.4c0,0.1,0,0.3,0,0.4c0,0.1,0,0.2,0,0.4s0,0.3,0.1,0.4c-0.6-0.1-1.3-0.1-1.9-0.2
							s-1.4-0.1-2.3-0.1v3.9h1.9c0.5,0,0.8,0,1.1,0c0.3,0,0.6-0.1,1.1-0.1c0,0.1,0,0.3-0.1,0.4c0,0.1,0,0.3,0,0.4c0,0.1,0,0.2,0,0.4
							s0,0.3,0.1,0.4c-0.3,0-0.7-0.1-1.1-0.1c-0.4,0-0.8-0.1-1.2-0.1h-1.9v4.7c0.9,0,1.6,0,2.3-0.1s1.3-0.1,1.9-0.2
							c0,0.1,0,0.3-0.1,0.4c0,0.1,0,0.3,0,0.4c0,0.1,0,0.2,0,0.4s0,0.3,0.1,0.4h-7V114.9z"/>
						<path d="M104.5,123.5c0.5-1,1-1.9,1.4-2.7c0.5-1,1-1.9,1.4-2.9c0.7-1.3,1.1-2.4,1.4-3c0.2,0,0.3,0,0.4,0.1s0.2,0,0.3,0
							c0.1,0,0.2,0,0.4,0c0.2,0,0.3,0,0.4-0.1c0.2,1.6,0.3,3.1,0.5,4.6c0.3,2.4,0.4,3.8,0.5,4.1c0.2,1.1,0.4,2.4,0.6,3.8
							c-0.2,0-0.5,0-0.8,0c-0.4,0-0.6,0-0.7,0c-0.2,0-0.5,0-0.8,0c-0.3,0-0.6,0-0.7,0c0-1.2-0.1-2.5-0.3-4.1c-0.2-1.6-0.4-3-0.5-4.5
							c-0.5,0.9-0.9,1.9-1.4,2.8c-0.5,0.9-0.9,1.9-1.4,2.8c-0.3,0.6-0.7,1.6-1.3,2.8c-0.2,0-0.3,0-0.4,0c0,0-0.1,0-0.3,0
							c-0.4-0.9-0.8-1.8-1.2-2.6c-0.5-1.1-1-2-1.4-2.8c-0.5-1-0.9-1.9-1.4-2.9c-0.2,1.4-0.3,2.4-0.4,3c-0.1,1-0.2,2-0.3,2.8
							c-0.1,0.9-0.1,1.7-0.1,2.5c-0.2,0-0.4,0-0.5-0.1s-0.3,0-0.4,0c-0.2,0-0.3,0-0.5,0c-0.1,0-0.3,0-0.4,0.1
							c0.2-1.2,0.4-2.5,0.6-3.9c0.1-0.8,0.3-2.2,0.6-4.1c0.3-2,0.5-3.5,0.6-4.6c0.2,0,0.3,0,0.4,0.1s0.2,0,0.3,0c0.2,0,0.3,0,0.4,0
							c0.1,0,0.2,0,0.3-0.1c0.3,0.7,0.8,1.6,1.4,2.9c0.5,1,0.9,1.9,1.4,2.9C103.5,121.6,104,122.5,104.5,123.5z"/>
						<path d="M114.2,127.5v-12.6c0.2,0,0.5,0,0.8,0s0.5,0,0.6,0c0.2,0,0.4,0,0.5,0c0.5,0,0.8-0.1,0.9-0.1v12.6c-0.2,0-0.4,0-0.5,0
							c-0.5,0-0.8-0.1-0.9-0.1c-0.2,0-0.5,0-0.8,0S114.2,127.5,114.2,127.5z"/>
						<path d="M120,127.5v-12.6h3.9c0.8,0,1.5,0,1.9,0s0.8,0.1,1.1,0.3c1.1,0.6,1.6,1.4,1.6,2.6c0,0.9-0.3,1.6-0.8,2.2
							s-1.2,1-2.1,1.1c0.5,0.8,1.1,1.9,2,3.2c0.6,0.9,1,1.5,1.2,1.9l0.7,1.1c-0.2,0-0.5,0-0.9,0c-0.4,0-0.6,0-0.7,0
							c-0.2,0-0.5,0-0.9,0c-0.4,0-0.6,0-0.7,0l-2.2-3.8l-1.2-2h-0.1v5.9c-0.2,0-0.4,0-0.5,0c-0.5,0-0.8-0.1-0.9-0.1
							c-0.2,0-0.5,0-0.8,0C120.2,127.4,120.1,127.5,120,127.5z M122.8,115.9v4.9c0.1,0,0.2,0,0.2,0c0.1,0,0.2,0,0.2,0
							c1.6,0,2.4-0.9,2.4-2.6c0-0.3,0-0.6-0.1-0.9c-0.1-0.6-0.4-1-0.8-1.2c-0.3-0.1-0.8-0.2-1.4-0.2H122.8z"/>
						<path d="M137.4,123.6h-4.3c-0.4,1.1-0.7,1.9-0.9,2.5c-0.2,0.5-0.3,1-0.4,1.4l-0.9-0.1l-0.9,0.1l5.2-12.7l0.7,0.1l0.7-0.1
							l5.1,12.7c-0.2,0-0.5,0-0.9,0c-0.4,0-0.6,0-0.7,0c-0.2,0-0.5,0-0.9,0s-0.6,0-0.7,0c-0.3-0.9-0.5-1.5-0.6-2
							C137.8,124.8,137.6,124.2,137.4,123.6z M133.6,122.5h3.4l-1.6-4.3L133.6,122.5z"/>
						<path d="M148.6,116.2v11.3c-0.2,0-0.4,0-0.5,0c-0.5,0-0.8-0.1-0.9-0.1c-0.2,0-0.5,0-0.8,0s-0.5,0-0.6,0v-11.3
							c-0.6,0-1.2,0-1.7,0.1s-1.1,0.1-1.7,0.2c0-0.2,0-0.3,0.1-0.4c0-0.1,0-0.2,0-0.3c0-0.2,0-0.3,0-0.4c0-0.1,0-0.2-0.1-0.3h9.4
							c0,0.2,0,0.3-0.1,0.4c0,0.1,0,0.2,0,0.3c0,0.2,0,0.3,0,0.5c0,0.1,0,0.2,0.1,0.3c-0.9-0.1-1.4-0.2-1.6-0.2
							C149.7,116.2,149.1,116.2,148.6,116.2z"/>
						<path d="M153.7,114.9h7c0,0.1,0,0.3-0.1,0.4c0,0.1,0,0.3,0,0.4c0,0.1,0,0.2,0,0.4s0,0.3,0.1,0.4c-0.6-0.1-1.3-0.1-1.9-0.2
							s-1.4-0.1-2.3-0.1v3.9h1.9c0.5,0,0.8,0,1.1,0c0.3,0,0.6-0.1,1.1-0.1c0,0.1,0,0.3-0.1,0.4c0,0.1,0,0.3,0,0.4c0,0.1,0,0.2,0,0.4
							s0,0.3,0.1,0.4c-0.3,0-0.7-0.1-1.1-0.1c-0.4,0-0.8-0.1-1.2-0.1h-1.9v4.7c0.9,0,1.6,0,2.3-0.1s1.3-0.1,1.9-0.2
							c0,0.1,0,0.3-0.1,0.4c0,0.1,0,0.3,0,0.4c0,0.1,0,0.2,0,0.4s0,0.3,0.1,0.4h-7V114.9z"/>
						<path d="M168.8,117.3h-0.3c-0.2-0.5-0.5-0.9-0.8-1.2s-0.8-0.4-1.3-0.4c-0.7,0-1.2,0.2-1.5,0.5s-0.5,0.8-0.5,1.3
							c0,0.7,0.5,1.2,1.4,1.8c1.7,1,2.6,1.5,2.7,1.5c1,0.8,1.4,1.7,1.4,2.9c0,1.2-0.5,2.1-1.4,2.9c-0.9,0.8-2.1,1.1-3.5,1.1
							c-0.5,0-1.1-0.1-1.6-0.2s-1-0.3-1.4-0.6c0.1-0.5,0.3-0.9,0.3-1.2s0.1-0.7,0.2-1.1h0.3c0.1,0.6,0.4,1.1,0.9,1.5
							c0.5,0.4,1,0.5,1.6,0.5c0.6,0,1.1-0.2,1.5-0.5c0.4-0.3,0.6-0.8,0.6-1.4c0-0.8-0.5-1.4-1.4-1.9c-0.9-0.5-1.8-0.9-2.6-1.4
							c-1-0.7-1.4-1.7-1.4-2.9c0-1.1,0.4-2,1.1-2.7c0.8-0.8,1.8-1.1,3.2-1.1c0.6,0,1.2,0.1,1.7,0.3c0.5,0.2,0.9,0.4,1.2,0.6
							c-0.1,0.4-0.2,0.6-0.3,0.9C169,116.7,168.9,117,168.8,117.3z"/>
					</g>
					<g class="st5">
						<path d="M14.6,143.1c0,1.9-0.6,3.4-1.9,4.6c-1.3,1.3-3.1,2-5.3,2c-2.1,0-3.7-0.6-4.9-1.7c-1.2-1.1-1.8-2.8-1.8-4.8
							c0-1.9,0.6-3.4,1.9-4.7c1.3-1.3,3.1-1.9,5.3-1.9c2.4,0,4.2,0.7,5.4,2.2C14.2,139.9,14.6,141.4,14.6,143.1z M7.8,137.6
							c-1.3,0-2.3,0.5-3,1.5c-0.7,1-1.1,2.5-1.1,4.6c0,1.3,0.3,2.5,0.9,3.3c0.7,1,1.7,1.6,3,1.6c1.3,0,2.4-0.6,3.1-1.8
							c0.7-1.1,1-2.4,1-4.1c0-1.4-0.3-2.5-0.9-3.4C10,138.2,9,137.6,7.8,137.6z"/>
						<path d="M16.8,149.4v-12.5h1.8c0.8,0.9,1.7,1.8,2.6,2.8c0.5,0.5,1.4,1.5,2.7,2.9c1.3,1.4,2.1,2.3,2.6,2.9v-8.6l0.7,0.1
							l0.7-0.1v12.6l-1.6,0c-1-1.1-2.1-2.3-3.1-3.5c-1.1-1.2-2.1-2.3-3.1-3.3l-2-2.1v8.9l-0.7-0.1L16.8,149.4z"/>
						<path d="M40.7,147.2l0.2,0.1l-0.4,1.6c-0.5,0.3-1.1,0.5-1.7,0.6c-0.6,0.1-1.3,0.2-1.9,0.2c-2,0-3.6-0.6-4.9-1.7
							c-1.3-1.1-2-2.6-2-4.5c0-2.3,0.7-4,2.1-5.3c1.3-1.1,3-1.7,5.2-1.7c0.6,0,1.3,0.1,2,0.2c0.7,0.2,1.2,0.4,1.8,0.7
							c-0.1,0.2-0.1,0.5-0.2,0.9s-0.1,0.7-0.2,1h-0.3c-0.3-0.5-0.8-0.9-1.3-1.2c-0.6-0.3-1.1-0.5-1.7-0.5c-1.4,0-2.5,0.6-3.3,1.8
							c-0.7,1-1,2.3-1,3.8c0,1.6,0.4,2.9,1.1,3.9s1.8,1.5,3.2,1.5c0.6,0,1.2-0.1,1.8-0.4S40.3,147.6,40.7,147.2z"/>
						<path d="M56.4,143.1c0,1.9-0.6,3.4-1.9,4.6c-1.3,1.3-3.1,2-5.3,2c-2.1,0-3.7-0.6-4.9-1.7c-1.2-1.1-1.8-2.8-1.8-4.8
							c0-1.9,0.6-3.4,1.9-4.7c1.3-1.3,3.1-1.9,5.3-1.9c2.4,0,4.2,0.7,5.4,2.2C55.9,139.9,56.4,141.4,56.4,143.1z M49.5,137.6
							c-1.3,0-2.3,0.5-3,1.5c-0.7,1-1.1,2.5-1.1,4.6c0,1.3,0.3,2.5,0.9,3.3c0.7,1,1.7,1.6,3,1.6c1.3,0,2.4-0.6,3.1-1.8
							c0.7-1.1,1-2.4,1-4.1c0-1.4-0.3-2.5-0.9-3.4C51.8,138.2,50.8,137.6,49.5,137.6z"/>
						<path d="M61.2,136.9V148c0.8,0,1.5,0,2-0.1c0.6,0,1.3-0.1,2.2-0.2c0,0.1,0,0.3-0.1,0.4c0,0.1,0,0.3,0,0.4c0,0.1,0,0.2,0,0.4
							s0,0.3,0.1,0.4h-6.9v-12.5c0.2,0,0.5,0,0.8,0s0.5,0,0.6,0c0.2,0,0.4,0,0.5,0C60.9,136.9,61.2,136.9,61.2,136.9z"/>
						<path d="M80.8,143.1c0,1.9-0.6,3.4-1.9,4.6c-1.3,1.3-3.1,2-5.3,2c-2.1,0-3.7-0.6-4.9-1.7c-1.2-1.1-1.8-2.8-1.8-4.8
							c0-1.9,0.6-3.4,1.9-4.7c1.3-1.3,3.1-1.9,5.3-1.9c2.4,0,4.2,0.7,5.4,2.2C80.4,139.9,80.8,141.4,80.8,143.1z M73.9,137.6
							c-1.3,0-2.3,0.5-3,1.5c-0.7,1-1.1,2.5-1.1,4.6c0,1.3,0.3,2.5,0.9,3.3c0.7,1,1.7,1.6,3,1.6c1.3,0,2.4-0.6,3.1-1.8
							c0.7-1.1,1-2.4,1-4.1c0-1.4-0.3-2.5-0.9-3.4C76.2,138.2,75.2,137.6,73.9,137.6z"/>
						<path d="M94.4,143.8v5.1c-1,0.3-1.8,0.5-2.6,0.6c-0.8,0.1-1.5,0.2-2.3,0.2c-2.1,0-3.8-0.5-5.1-1.5c-1.5-1.1-2.2-2.7-2.2-4.7
							c0-2.2,0.7-3.9,2.2-5.1c1.4-1.2,3.2-1.7,5.4-1.7c0.8,0,1.6,0.1,2.3,0.3c0.7,0.2,1.4,0.5,2.1,0.9c-0.3,0.6-0.4,1.2-0.5,1.9
							h-0.3c-0.4-0.6-0.9-1.1-1.6-1.4c-0.6-0.3-1.3-0.5-2-0.5c-1.5,0-2.6,0.6-3.4,1.8c-0.8,1.1-1.1,2.4-1.1,4.1
							c0,1.6,0.4,2.8,1.2,3.7c0.8,0.9,1.9,1.4,3.2,1.4c0.5,0,0.8,0,1.1-0.1c0.3-0.1,0.6-0.2,0.9-0.4v-4.3c0.2,0,0.5,0,0.8,0
							s0.5,0,0.6,0c0.2,0,0.4,0,0.5,0C94.1,143.8,94.4,143.8,94.4,143.8z"/>
						<path d="M100,149.5v-5.3c-0.4-0.6-0.9-1.5-1.5-2.7c-1.5-2.8-2.3-4.3-2.5-4.6c0.2,0,0.5,0,0.9,0c0.4,0,0.6,0,0.7,0
							c0.2,0,0.5,0,0.9,0c0.4,0,0.6,0,0.7,0l1.6,3.3c0.3,0.6,0.5,1.1,0.7,1.4c0.2,0.4,0.4,0.7,0.5,0.8c0.3-0.4,0.8-1.2,1.4-2.5
							c0.3-0.6,0.7-1.6,1.4-3l0.9,0.1l0.9-0.1c-0.4,0.7-0.8,1.5-1.3,2.3c-0.4,0.8-0.9,1.5-1.3,2.3c-0.4,0.7-0.8,1.5-1.2,2.3v5.7
							c-0.2,0-0.4,0-0.5,0c-0.5,0-0.8-0.1-0.9-0.1c-0.2,0-0.5,0-0.8,0C100.2,149.4,100,149.5,100,149.5z"/>
						<path d="M118.7,142.2l0.2,0.3l2.7,3.2c0.4-0.5,0.8-1,1.2-1.7c0.3-0.5,0.7-1.2,1-1.8l1,1c-0.5,0.6-0.9,1.2-1.2,1.6
							c-0.4,0.5-0.8,1-1.3,1.5c0.8,0.9,1.7,1.9,2.5,2.8v0.2c-0.2,0-0.6,0-1,0s-0.7,0-0.8,0c-0.2,0-0.6,0-1,0s-0.7,0-0.8,0l-0.9-1.3
							c-0.5,0.4-1.1,0.8-1.8,1.1c-0.7,0.3-1.4,0.4-2.1,0.4c-0.5,0-1-0.1-1.4-0.2c-0.4-0.1-0.8-0.4-1.2-0.7c-0.7-0.6-1-1.3-1-2.2
							c0-0.9,0.3-1.6,1-2.3c0.5-0.5,1.3-1,2.2-1.4c-0.4-0.5-0.6-0.9-0.7-1.1c-0.4-0.7-0.6-1.4-0.6-2c0-0.8,0.3-1.5,1-2
							c0.7-0.5,1.4-0.8,2.3-0.8c0.8,0,1.5,0.2,2,0.5c0.7,0.4,1,1,1,1.7c0,0.5-0.1,1-0.4,1.4C120.3,141.1,119.6,141.6,118.7,142.2z
							 M116.6,143.5c-0.4,0.3-0.7,0.6-1,0.9c-0.3,0.4-0.4,0.8-0.4,1.3c0,0.5,0.2,1.1,0.6,1.6c0.2,0.2,0.3,0.4,0.5,0.5
							c0.2,0.1,0.4,0.2,0.7,0.3c0.1,0,0.2,0.1,0.4,0.1c0.2,0,0.4,0,0.6,0c0.3,0,0.7-0.1,1-0.2c0.4-0.1,0.6-0.3,0.9-0.5
							c-0.5-0.6-1.1-1.3-1.6-2C117.6,144.9,117.1,144.2,116.6,143.5z M118.2,141.6c0.4-0.3,0.7-0.7,1-1.1c0.3-0.5,0.4-0.9,0.4-1.3
							c0-0.4-0.1-0.7-0.3-1c-0.2-0.3-0.5-0.4-0.9-0.4c-0.9,0-1.3,0.4-1.3,1.3c0,0.4,0.1,0.8,0.4,1.3
							C117.6,140.6,117.8,141,118.2,141.6z"/>
						<path d="M131.9,149.5v-12.6c0.2,0,0.5,0,0.8,0s0.5,0,0.6,0c0.2,0,0.4,0,0.5,0c0.5,0,0.8-0.1,0.9-0.1v5c0.4,0,1,0,1.6,0
							c0.7,0,1.1,0,1.2,0c0.4,0,0.8,0,1,0c1.1,0,1.7-0.1,1.8-0.1v-5c0.2,0,0.5,0,0.8,0c0.3,0,0.5,0,0.6,0c0.2,0,0.4,0,0.5,0
							c0.5,0,0.8-0.1,0.9-0.1v12.6c-0.2,0-0.4,0-0.5,0c-0.5,0-0.8-0.1-0.9-0.1c-0.2,0-0.5,0-0.8,0c-0.3,0-0.5,0-0.6,0v-6.1
							c-0.4,0-0.8,0-1,0c-1.1,0-1.7-0.1-1.8-0.1c-0.4,0-1,0-1.7,0s-1.1,0-1.2,0v6.1c-0.2,0-0.4,0-0.5,0c-0.5,0-0.8-0.1-0.9-0.1
							c-0.2,0-0.5,0-0.8,0S132,149.5,131.9,149.5z"/>
						<path d="M146,136.9h7c0,0.1,0,0.3-0.1,0.4c0,0.1,0,0.3,0,0.4c0,0.1,0,0.2,0,0.4s0,0.3,0.1,0.4c-0.6-0.1-1.3-0.1-1.9-0.2
							s-1.4-0.1-2.3-0.1v3.9h1.9c0.5,0,0.8,0,1.1,0c0.3,0,0.6-0.1,1.1-0.1c0,0.1,0,0.3-0.1,0.4c0,0.1,0,0.3,0,0.4c0,0.1,0,0.2,0,0.4
							s0,0.3,0.1,0.4c-0.3,0-0.7-0.1-1.1-0.1c-0.4,0-0.8-0.1-1.2-0.1h-1.9v4.7c0.9,0,1.6,0,2.3-0.1s1.3-0.1,1.9-0.2
							c0,0.1,0,0.3-0.1,0.4c0,0.1,0,0.3,0,0.4c0,0.1,0,0.2,0,0.4s0,0.3,0.1,0.4h-7V136.9z"/>
						<path d="M162,145.5c0.5-1,1-1.9,1.4-2.7c0.5-1,1-1.9,1.4-2.9c0.7-1.3,1.1-2.4,1.4-3c0.2,0,0.3,0,0.4,0.1s0.2,0,0.3,0
							c0.1,0,0.2,0,0.4,0c0.2,0,0.3,0,0.4-0.1c0.2,1.6,0.3,3.1,0.5,4.6c0.3,2.4,0.4,3.8,0.5,4.1c0.2,1.1,0.4,2.4,0.6,3.8
							c-0.2,0-0.5,0-0.8,0c-0.4,0-0.6,0-0.7,0c-0.2,0-0.5,0-0.8,0c-0.3,0-0.6,0-0.7,0c0-1.2-0.1-2.5-0.3-4.1c-0.2-1.6-0.4-3-0.5-4.5
							c-0.5,0.9-0.9,1.9-1.4,2.8c-0.5,0.9-0.9,1.9-1.4,2.8c-0.3,0.6-0.7,1.6-1.3,2.8c-0.2,0-0.3,0-0.4,0c0,0-0.1,0-0.3,0
							c-0.4-0.9-0.8-1.8-1.2-2.6c-0.5-1.1-1-2-1.4-2.8c-0.5-1-0.9-1.9-1.4-2.9c-0.2,1.4-0.3,2.4-0.4,3c-0.1,1-0.2,2-0.3,2.8
							s-0.1,1.7-0.1,2.5c-0.2,0-0.4,0-0.5-0.1s-0.3,0-0.4,0c-0.2,0-0.3,0-0.5,0c-0.1,0-0.2,0-0.4,0.1c0.2-1.2,0.4-2.5,0.6-3.9
							c0.1-0.8,0.3-2.2,0.6-4.1c0.3-2,0.5-3.5,0.6-4.6c0.2,0,0.3,0,0.4,0.1s0.2,0,0.3,0c0.2,0,0.3,0,0.4,0c0.1,0,0.2,0,0.3-0.1
							c0.3,0.7,0.8,1.6,1.4,2.9c0.5,1,0.9,1.9,1.4,2.9C161,143.6,161.5,144.5,162,145.5z"/>
						<path d="M177.6,145.6h-4.3c-0.4,1.1-0.7,1.9-0.9,2.5s-0.3,1-0.4,1.4l-0.9-0.1l-0.9,0.1l5.2-12.7l0.7,0.1l0.7-0.1l5.1,12.7
							c-0.2,0-0.5,0-0.9,0s-0.6,0-0.7,0c-0.2,0-0.5,0-0.9,0s-0.6,0-0.7,0c-0.3-0.9-0.5-1.5-0.6-2C178,146.8,177.8,146.2,177.6,145.6
							z M173.8,144.5h3.3l-1.6-4.3L173.8,144.5z"/>
						<path d="M188.8,138.2v11.3c-0.2,0-0.4,0-0.5,0c-0.5,0-0.8-0.1-0.9-0.1c-0.2,0-0.5,0-0.8,0s-0.5,0-0.6,0v-11.3
							c-0.6,0-1.2,0-1.7,0.1s-1.1,0.1-1.7,0.2c0-0.2,0-0.3,0.1-0.4c0-0.1,0-0.2,0-0.3c0-0.2,0-0.3,0-0.4c0-0.1,0-0.2-0.1-0.3h9.4
							c0,0.2,0,0.3-0.1,0.4c0,0.1,0,0.2,0,0.3c0,0.2,0,0.3,0,0.5c0,0.1,0,0.2,0.1,0.3c-0.9-0.1-1.4-0.2-1.6-0.2
							C189.9,138.2,189.4,138.2,188.8,138.2z"/>
						<path d="M207.1,143.1c0,1.9-0.6,3.4-1.9,4.6c-1.3,1.3-3.1,2-5.3,2c-2.1,0-3.7-0.6-4.9-1.7c-1.2-1.1-1.8-2.8-1.8-4.8
							c0-1.9,0.6-3.4,1.9-4.7c1.3-1.3,3.1-1.9,5.3-1.9c2.4,0,4.2,0.7,5.4,2.2C206.7,139.9,207.1,141.4,207.1,143.1z M200.2,137.6
							c-1.3,0-2.3,0.5-3,1.5c-0.7,1-1.1,2.5-1.1,4.6c0,1.3,0.3,2.5,0.9,3.3c0.7,1,1.7,1.6,3,1.6c1.3,0,2.4-0.6,3.1-1.8
							c0.7-1.1,1-2.4,1-4.1c0-1.4-0.3-2.5-0.9-3.4C202.5,138.2,201.5,137.6,200.2,137.6z"/>
						<path d="M212,136.9V148c0.8,0,1.5,0,2-0.1c0.6,0,1.3-0.1,2.2-0.2c0,0.1,0,0.3-0.1,0.4c0,0.1,0,0.3,0,0.4c0,0.1,0,0.2,0,0.4
							s0,0.3,0.1,0.4h-6.9v-12.5c0.2,0,0.5,0,0.8,0s0.5,0,0.6,0c0.2,0,0.4,0,0.5,0C211.6,136.9,211.9,136.9,212,136.9z"/>
						<path d="M231.6,143.1c0,1.9-0.6,3.4-1.9,4.6c-1.3,1.3-3.1,2-5.3,2c-2.1,0-3.7-0.6-4.9-1.7c-1.2-1.1-1.8-2.8-1.8-4.8
							c0-1.9,0.6-3.4,1.9-4.7c1.3-1.3,3.1-1.9,5.3-1.9c2.4,0,4.2,0.7,5.4,2.2C231.1,139.9,231.6,141.4,231.6,143.1z M224.7,137.6
							c-1.3,0-2.3,0.5-3,1.5c-0.7,1-1.1,2.5-1.1,4.6c0,1.3,0.3,2.5,0.9,3.3c0.7,1,1.7,1.6,3,1.6c1.3,0,2.4-0.6,3.1-1.8
							c0.7-1.1,1-2.4,1-4.1c0-1.4-0.3-2.5-0.9-3.4C226.9,138.2,226,137.6,224.7,137.6z"/>
						<path d="M245.2,143.8v5.1c-1,0.3-1.8,0.5-2.6,0.6c-0.8,0.1-1.5,0.2-2.3,0.2c-2.1,0-3.8-0.5-5.1-1.5c-1.5-1.1-2.2-2.7-2.2-4.7
							c0-2.2,0.7-3.9,2.2-5.1c1.4-1.2,3.2-1.7,5.4-1.7c0.8,0,1.6,0.1,2.3,0.3c0.7,0.2,1.4,0.5,2.1,0.9c-0.3,0.6-0.4,1.2-0.5,1.9
							h-0.3c-0.4-0.6-0.9-1.1-1.6-1.4c-0.6-0.3-1.3-0.5-2-0.5c-1.5,0-2.6,0.6-3.4,1.8c-0.8,1.1-1.1,2.4-1.1,4.1
							c0,1.6,0.4,2.8,1.2,3.7c0.8,0.9,1.9,1.4,3.2,1.4c0.5,0,0.8,0,1.1-0.1c0.3-0.1,0.6-0.2,0.9-0.4v-4.3c0.2,0,0.5,0,0.8,0
							s0.5,0,0.6,0c0.2,0,0.4,0,0.5,0C244.8,143.8,245.1,143.8,245.2,143.8z"/>
						<path d="M250.7,149.5v-5.3c-0.4-0.6-0.9-1.5-1.5-2.7c-1.5-2.8-2.3-4.3-2.5-4.6c0.2,0,0.5,0,0.9,0c0.4,0,0.6,0,0.7,0
							c0.2,0,0.5,0,0.9,0c0.4,0,0.6,0,0.7,0l1.6,3.3c0.3,0.6,0.5,1.1,0.7,1.4c0.2,0.4,0.4,0.7,0.5,0.8c0.3-0.4,0.8-1.2,1.4-2.5
							c0.3-0.6,0.7-1.6,1.4-3l0.9,0.1l0.9-0.1c-0.4,0.7-0.8,1.5-1.3,2.3c-0.4,0.8-0.9,1.5-1.3,2.3c-0.4,0.7-0.8,1.5-1.2,2.3v5.7
							c-0.2,0-0.4,0-0.5,0c-0.5,0-0.8-0.1-0.9-0.1c-0.2,0-0.5,0-0.8,0S250.8,149.5,250.7,149.5z"/>
					</g>
					<g>
						<defs>
							<rect id="SVGID_00000134225307554328538700000010079528538249298821_" x="-0.7" y="0" width="259.1" height="176.1"/>
						</defs>
						<clipPath id="SVGID_00000035507836756573340950000001790031289228704954_">
							<use xlink:href="#SVGID_00000134225307554328538700000010079528538249298821_"  style="overflow:visible;"/>
						</clipPath>
						<g style="clip-path:url(#SVGID_00000035507836756573340950000001790031289228704954_);">
							<g class="st5">
								<path d="M49.4,171.4v-12.5h1.8c0.8,0.9,1.7,1.8,2.6,2.8c0.5,0.5,1.4,1.5,2.7,2.9c1.3,1.4,2.1,2.3,2.6,2.9v-8.6l0.7,0.1
									l0.7-0.1v12.6l-1.6,0c-1-1.1-2.1-2.3-3.1-3.5c-1.1-1.2-2.1-2.3-3.1-3.3l-2-2.1v8.9l-0.7-0.1L49.4,171.4z"/>
								<path d="M63.8,166.3v-7.5c0.2,0,0.5,0,0.8,0s0.5,0,0.6,0c0.2,0,0.4,0,0.5,0c0.5,0,0.8-0.1,0.9-0.1v5.2v0.8
									c0,0.5,0,0.9,0,1.4c0,0.5,0.1,0.9,0.1,1.4s0.2,0.8,0.3,1.1c0.1,0.3,0.3,0.6,0.7,0.9c0.6,0.5,1.3,0.8,2.1,0.8
									c0.9,0,1.5-0.2,2-0.5s0.9-0.9,1.2-1.7c0.1-0.4,0.2-0.9,0.3-1.5c0-0.6,0.1-1.4,0.1-2.3v-5.5l0.7,0.1l0.7-0.1v6.5
									c0,1.3-0.1,2.3-0.3,2.9c-0.3,1-0.8,1.8-1.7,2.4c-0.5,0.3-1,0.6-1.6,0.7c-0.6,0.2-1.2,0.2-1.9,0.2c-1.3,0-2.3-0.2-3.2-0.6
									c-1.1-0.5-1.8-1.3-2.1-2.4c-0.1-0.3-0.2-0.7-0.2-1.1S63.8,166.7,63.8,166.3z"/>
								<path d="M77.8,171.5v-12.6h3.9c0.8,0,1.5,0,1.9,0s0.8,0.1,1.1,0.3c1.1,0.6,1.6,1.4,1.6,2.6c0,0.9-0.3,1.6-0.8,2.2
									s-1.2,1-2.1,1.1c0.5,0.8,1.1,1.9,2,3.2c0.6,0.9,1,1.5,1.2,1.9l0.7,1.1c-0.2,0-0.5,0-0.9,0c-0.4,0-0.6,0-0.7,0
									c-0.2,0-0.5,0-0.9,0c-0.4,0-0.6,0-0.7,0l-2.2-3.8l-1.2-2h-0.1v5.9c-0.2,0-0.4,0-0.5,0c-0.5,0-0.8-0.1-0.9-0.1
									c-0.2,0-0.5,0-0.8,0C78,171.4,77.8,171.5,77.8,171.5z M80.5,159.9v4.9c0.1,0,0.2,0,0.2,0c0.1,0,0.2,0,0.2,0
									c1.6,0,2.4-0.9,2.4-2.6c0-0.3,0-0.6-0.1-0.9c-0.1-0.6-0.4-1-0.8-1.2c-0.3-0.1-0.8-0.2-1.4-0.2H80.5z"/>
								<path d="M95,161.2h-0.3c-0.2-0.5-0.5-0.9-0.8-1.2s-0.8-0.4-1.3-0.4c-0.7,0-1.2,0.2-1.5,0.5s-0.5,0.8-0.5,1.3
									c0,0.7,0.5,1.2,1.4,1.8c1.7,1,2.6,1.5,2.7,1.5c1,0.8,1.4,1.7,1.4,2.9c0,1.2-0.5,2.1-1.4,2.9c-0.9,0.8-2.1,1.1-3.5,1.1
									c-0.5,0-1.1-0.1-1.6-0.2c-0.5-0.1-1-0.3-1.4-0.6c0.1-0.5,0.3-0.9,0.3-1.2c0.1-0.3,0.1-0.7,0.2-1.1h0.3
									c0.1,0.6,0.4,1.1,0.9,1.5c0.5,0.4,1,0.5,1.6,0.5c0.6,0,1.1-0.2,1.5-0.5c0.4-0.3,0.6-0.8,0.6-1.4c0-0.8-0.5-1.4-1.4-1.9
									c-0.9-0.5-1.8-0.9-2.6-1.4c-1-0.7-1.4-1.7-1.4-2.9c0-1.1,0.4-2,1.1-2.7c0.8-0.8,1.8-1.1,3.2-1.1c0.6,0,1.2,0.1,1.7,0.3
									c0.5,0.2,0.9,0.4,1.2,0.6c-0.1,0.4-0.2,0.6-0.3,0.9C95.1,160.7,95,161,95,161.2z"/>
								<path d="M98.4,171.5v-12.6c0.2,0,0.5,0,0.8,0s0.5,0,0.6,0c0.2,0,0.4,0,0.5,0c0.5,0,0.8-0.1,0.9-0.1v12.6c-0.2,0-0.4,0-0.5,0
									c-0.5,0-0.8-0.1-0.9-0.1c-0.2,0-0.5,0-0.8,0S98.5,171.5,98.4,171.5z"/>
								<path d="M104.4,171.4v-12.5h1.8c0.8,0.9,1.7,1.8,2.6,2.8c0.5,0.5,1.4,1.5,2.7,2.9c1.3,1.4,2.1,2.3,2.6,2.9v-8.6l0.7,0.1
									l0.7-0.1v12.6l-1.6,0c-1-1.1-2.1-2.3-3.1-3.5c-1.1-1.2-2.1-2.3-3.1-3.3l-2-2.1v8.9l-0.7-0.1L104.4,171.4z"/>
								<path d="M130.1,165.8v5.1c-1,0.3-1.8,0.5-2.6,0.6c-0.8,0.1-1.5,0.2-2.3,0.2c-2.1,0-3.8-0.5-5.1-1.5
									c-1.5-1.1-2.2-2.7-2.2-4.7c0-2.2,0.7-3.9,2.2-5.1c1.4-1.2,3.2-1.7,5.4-1.7c0.8,0,1.6,0.1,2.3,0.3c0.7,0.2,1.4,0.5,2.1,0.9
									c-0.3,0.6-0.4,1.2-0.5,1.9h-0.3c-0.4-0.6-0.9-1.1-1.6-1.4c-0.6-0.3-1.3-0.5-2-0.5c-1.5,0-2.6,0.6-3.4,1.8
									c-0.8,1.1-1.1,2.4-1.1,4.1c0,1.6,0.4,2.8,1.2,3.7c0.8,0.9,1.9,1.4,3.2,1.4c0.5,0,0.8,0,1.1-0.1c0.3-0.1,0.6-0.2,0.9-0.4
									v-4.3c0.2,0,0.5,0,0.8,0s0.5,0,0.6,0c0.2,0,0.4,0,0.5,0C129.8,165.8,130,165.8,130.1,165.8z"/>
								<path d="M143.9,161.2h-0.3c-0.2-0.5-0.5-0.9-0.8-1.2s-0.8-0.4-1.3-0.4c-0.7,0-1.2,0.2-1.5,0.5s-0.5,0.8-0.5,1.3
									c0,0.7,0.5,1.2,1.4,1.8c1.7,1,2.6,1.5,2.7,1.5c1,0.8,1.4,1.7,1.4,2.9c0,1.2-0.5,2.1-1.4,2.9c-0.9,0.8-2.1,1.1-3.5,1.1
									c-0.5,0-1.1-0.1-1.6-0.2c-0.5-0.1-1-0.3-1.4-0.6c0.1-0.5,0.3-0.9,0.3-1.2c0.1-0.3,0.1-0.7,0.2-1.1h0.3
									c0.1,0.6,0.4,1.1,0.9,1.5c0.5,0.4,1,0.5,1.7,0.5c0.6,0,1.1-0.2,1.5-0.5s0.6-0.8,0.6-1.4c0-0.8-0.5-1.4-1.4-1.9
									c-0.9-0.5-1.8-0.9-2.6-1.4c-1-0.7-1.4-1.7-1.4-2.9c0-1.1,0.4-2,1.1-2.7c0.8-0.8,1.8-1.1,3.2-1.1c0.6,0,1.2,0.1,1.7,0.3
									c0.5,0.2,0.9,0.4,1.2,0.6c-0.1,0.4-0.2,0.6-0.3,0.9C144,160.7,143.9,161,143.9,161.2z"/>
								<path d="M160.3,165.1c0,1.9-0.6,3.4-1.9,4.6c-1.3,1.3-3.1,2-5.3,2c-2.1,0-3.7-0.6-4.9-1.7c-1.2-1.1-1.8-2.8-1.8-4.8
									c0-1.9,0.6-3.4,1.9-4.7c1.3-1.3,3.1-1.9,5.3-1.9c2.4,0,4.2,0.7,5.4,2.2C159.8,161.9,160.3,163.4,160.3,165.1z M153.4,159.6
									c-1.3,0-2.3,0.5-3,1.5c-0.7,1-1.1,2.5-1.1,4.6c0,1.3,0.3,2.5,0.9,3.3c0.7,1,1.7,1.6,3,1.6c1.3,0,2.4-0.6,3.1-1.8
									c0.7-1.1,1-2.4,1-4.1c0-1.4-0.3-2.5-0.9-3.4C155.7,160.2,154.7,159.6,153.4,159.6z"/>
								<path d="M172.1,169.2l0.2,0.1l-0.4,1.6c-0.5,0.3-1.1,0.5-1.7,0.6c-0.6,0.1-1.3,0.2-1.9,0.2c-2,0-3.6-0.6-4.9-1.7
									c-1.3-1.1-2-2.6-2-4.5c0-2.3,0.7-4,2.1-5.3c1.3-1.1,3-1.7,5.2-1.7c0.6,0,1.3,0.1,2,0.2c0.7,0.2,1.2,0.4,1.8,0.7
									c-0.1,0.2-0.1,0.5-0.2,0.9c-0.1,0.3-0.1,0.7-0.2,1h-0.3c-0.3-0.5-0.8-0.9-1.3-1.2s-1.1-0.5-1.7-0.5c-1.4,0-2.5,0.6-3.3,1.8
									c-0.7,1-1,2.3-1,3.8c0,1.6,0.4,2.9,1.1,3.9s1.8,1.5,3.2,1.5c0.6,0,1.2-0.1,1.8-0.4S171.6,169.6,172.1,169.2z"/>
								<path d="M174.8,171.5v-12.6c0.2,0,0.5,0,0.8,0s0.5,0,0.6,0c0.2,0,0.4,0,0.5,0c0.5,0,0.8-0.1,0.9-0.1v12.6
									c-0.2,0-0.4,0-0.5,0c-0.5,0-0.8-0.1-0.9-0.1c-0.2,0-0.5,0-0.8,0S174.8,171.5,174.8,171.5z"/>
								<path d="M180.7,158.9h7c0,0.1,0,0.3-0.1,0.4c0,0.1,0,0.3,0,0.4c0,0.1,0,0.2,0,0.4s0,0.3,0.1,0.4c-0.6-0.1-1.3-0.1-1.9-0.2
									s-1.4-0.1-2.3-0.1v3.9h1.9c0.5,0,0.8,0,1.1,0c0.3,0,0.6-0.1,1.1-0.1c0,0.1,0,0.3-0.1,0.4c0,0.1,0,0.3,0,0.4
									c0,0.1,0,0.2,0,0.4s0,0.3,0.1,0.4c-0.3,0-0.7-0.1-1.1-0.1c-0.4,0-0.8-0.1-1.2-0.1h-1.9v4.7c0.9,0,1.6,0,2.3-0.1
									s1.3-0.1,1.9-0.2c0,0.1,0,0.3-0.1,0.4c0,0.1,0,0.3,0,0.4c0,0.1,0,0.2,0,0.4s0,0.3,0.1,0.4h-7V158.9z"/>
								<path d="M194.9,160.2v11.3c-0.2,0-0.4,0-0.5,0c-0.5,0-0.8-0.1-0.9-0.1c-0.2,0-0.5,0-0.8,0s-0.5,0-0.6,0v-11.3
									c-0.6,0-1.2,0-1.7,0.1s-1.1,0.1-1.7,0.2c0-0.2,0-0.3,0.1-0.4c0-0.1,0-0.2,0-0.3c0-0.2,0-0.3,0-0.4c0-0.1,0-0.2-0.1-0.3h9.4
									c0,0.2,0,0.3-0.1,0.4c0,0.1,0,0.2,0,0.3c0,0.2,0,0.3,0,0.5c0,0.1,0,0.2,0.1,0.3c-0.9-0.1-1.4-0.2-1.6-0.2
									C196,160.2,195.5,160.2,194.9,160.2z"/>
								<path d="M202.9,171.5v-5.3c-0.4-0.6-0.9-1.5-1.5-2.7c-1.5-2.8-2.3-4.3-2.5-4.6c0.2,0,0.5,0,0.9,0s0.6,0,0.7,0
									c0.2,0,0.5,0,0.9,0c0.4,0,0.6,0,0.7,0l1.6,3.3c0.3,0.6,0.5,1.1,0.7,1.4c0.2,0.4,0.4,0.7,0.5,0.8c0.3-0.4,0.8-1.2,1.4-2.5
									c0.3-0.6,0.7-1.6,1.4-3l0.9,0.1l0.9-0.1c-0.4,0.7-0.8,1.5-1.3,2.3c-0.4,0.8-0.9,1.5-1.3,2.3c-0.4,0.7-0.8,1.5-1.2,2.3v5.7
									c-0.2,0-0.4,0-0.5,0c-0.5,0-0.8-0.1-0.9-0.1c-0.2,0-0.5,0-0.8,0S202.9,171.5,202.9,171.5z"/>
							</g>
						</g>
					</g>
				</g>
			</g>
		</g>
	</g>
</g>
</svg>
