<?xml version="1.0" encoding="utf-8"?>
<!-- Generator: Adobe Illustrator 28.1.0, SVG Export Plug-In . SVG Version: 6.00 Build 0)  -->
<svg version="1.1" xmlns="http://www.w3.org/2000/svg" xmlns:xlink="http://www.w3.org/1999/xlink" x="0px" y="0px"
	 viewBox="300 150 1240 760" style="enable-background:new 0 0 1920 1080;" xml:space="preserve">
<style type="text/css">
	.st0{fill:#0099CE;}
	.st1{fill:#64B145;}
</style>
<g id="Layer_1">
</g>
<g id="Layer_4">
	<g>
		<path class="st0" d="M944.42,805.39c-1.78,3.09-4.07,5.67-6.98,7.74c-2.87,2.04-6.14,3.55-9.83,4.57
			c-3.7,1.04-7.45,1.54-11.28,1.54c-3.97,0-7.64-0.41-11.1-1.34c-3.44-0.86-6.35-2.28-8.88-4.21c-2.48-1.91-4.45-4.4-5.92-7.46
			c-1.46-3.06-2.2-6.75-2.2-11.12c0-8.13,2.62-13.77,7.85-16.91c5.18-3.12,12.6-4.68,22.15-4.68c10.33,0,17.71,1.51,22.18,4.58
			c4.46,3.07,6.68,8.43,6.68,16.07C947.09,798.51,946.19,802.27,944.42,805.39L944.42,805.39z M894.2,712.35
			c0-7.75,1.91-13.97,5.74-18.65c3.8-4.63,9.16-6.97,16.02-6.97c6.25,0,11.29,2.11,15.09,6.28c3.83,4.23,5.77,10.38,5.77,18.39
			c0,3.59-0.42,7.01-1.25,10.25c-0.83,3.25-2.1,6.12-3.81,8.63c-1.71,2.47-3.89,4.45-6.51,5.9c-2.6,1.48-5.75,2.19-9.45,2.19
			c-7.4,0-12.8-2.29-16.32-6.96C895.93,726.76,894.2,720.4,894.2,712.35L894.2,712.35z M953.69,769.31
			c-2.61-2.2-6.01-3.92-10.17-5.23c-4.11-1.24-9.15-1.95-14.98-2.07c-3.58-0.12-7.09-0.23-10.53-0.33
			c-3.44-0.07-6.93-0.16-10.51-0.31c-4.36-0.09-7.31-0.91-8.88-2.48c-1.61-1.49-2.43-3.92-2.43-7.21c0-2.56,1.02-4.62,2.99-6.29
			c1.98-1.65,4.11-2.45,6.41-2.45c1.78,0,3.53,0.03,5.25,0.2c1.75,0.14,3.5,0.21,5.3,0.21c10.83,0,19.48-2.74,25.93-8.12
			c6.47-5.44,9.67-12.89,9.67-22.5c0-4.85-1.22-9.53-3.65-14.06c-2.43-4.5-5.61-7.86-9.54-10.02l0.36-0.4
			c3.42,0.1,6.9,0.33,10.39,0.65c3.49,0.35,7.07,0.6,10.78,0.9l-0.3-2.03l-0.09-2l0.09-1.99l0.3-2c-3.18,0.6-8.35,0.91-15.48,0.91
			c-1.39,0-3.25-0.08-5.56-0.17c-2.28-0.13-4.89-0.31-7.83-0.57c-3.43-0.22-6.26-0.45-8.5-0.59c-2.23-0.14-4.55-0.17-6.96-0.17
			c-4.97,0-9.69,0.6-14.08,1.9c-4.36,1.27-8.26,3.16-11.66,5.76c-3.36,2.53-6,5.75-7.92,9.64c-1.88,3.91-2.88,8.54-2.88,13.87
			c0,7.01,1.69,12.87,4.99,17.53c3.31,4.64,7.91,8.22,13.77,10.78v0.4c-1.55,0.24-3.12,0.81-4.78,1.72
			c-1.65,0.88-3.15,2.01-4.42,3.44c-1.25,1.41-2.31,2.97-3.15,4.79c-0.82,1.79-1.22,3.73-1.22,5.91c0,3.7,1.03,6.88,3.05,9.55
			c2.03,2.65,5.05,4.57,9,5.73v0.38c-2.54,0.62-5.03,1.58-7.44,2.84c-2.44,1.27-4.6,3.01-6.51,5.19c-1.9,2.17-3.47,4.65-4.65,7.45
			c-1.24,2.83-1.83,5.87-1.83,9.18c0,8.54,3.56,15.31,10.68,20.21c7.13,4.91,16.9,7.34,29.24,7.34c8.01,0,14.88-1.19,20.61-3.63
			c5.77-2.42,10.41-5.45,14.05-9.19c3.66-3.7,6.33-7.85,8.05-12.45c1.71-4.57,2.57-9.15,2.57-13.56c0-3.3-0.62-6.41-1.82-9.2
			C958.21,773.95,956.3,771.42,953.69,769.31L953.69,769.31z M1211.66,700.81c0.19-6.31,0.63-12.23,1.33-17.72
			c-3.57,0.65-6.45,0.98-8.64,0.98c-2.16,0-5.05-0.33-8.63-0.98c0.64,5.49,1.02,11.41,1.22,17.72c0.19,6.31,0.28,12.33,0.28,18.06
			v19.89c0,5.73-0.09,11.76-0.28,18.03c-0.2,6.34-0.58,12.01-1.22,17.13c2.95-0.24,5.83-0.4,8.63-0.4c2.81,0,5.71,0.16,8.64,0.4
			c-0.7-5.12-1.14-10.79-1.33-17.13c-0.2-6.27-0.29-12.3-0.29-18.03v-19.89C1211.37,713.13,1211.45,707.12,1211.66,700.81
			L1211.66,700.81z M1415.34,742.23c-1.09,5.08-2.83,9.64-5.18,13.66c-2.36,3.99-5.31,7.29-8.9,9.76
			c-3.57,2.51-7.82,3.71-12.85,3.71c-2.99,0-6.14-0.57-9.34-1.74c-3.17-1.15-6.01-3.16-8.51-6.18c-2.47-3-4.49-7-6.11-11.97
			c-1.58-4.97-2.39-11.26-2.39-18.91c0-5.73,0.56-11.11,1.62-16.14c1.09-5.11,2.74-9.46,4.99-13.25c2.23-3.75,5.02-6.67,8.39-8.81
			c3.38-2.08,7.36-3.13,11.98-3.13c9.18,0,16.13,3.18,20.83,9.65c4.7,6.45,7.06,15.81,7.06,28.04
			C1416.94,732.01,1416.4,737.12,1415.34,742.23L1415.34,742.23z M1424.06,630.72c-1.4,0-2.81-0.12-4.19-0.29
			c-1.39-0.17-2.85-0.4-4.39-0.64c0.14,3.05,0.24,6.55,0.3,10.51c0.05,3.95,0.14,8.14,0.21,12.62c0.04,4.44,0.13,9.15,0.21,14.05
			c0.05,4.89,0.11,9.77,0.11,14.62l-0.11,18.75h-0.33c-5.49-12.77-15.3-19.14-29.48-19.14c-4.96,0-9.93,0.96-14.83,2.95
			c-4.93,1.98-9.33,4.97-13.23,8.99c-3.89,4.01-7.06,9.01-9.47,15.02c-2.44,6-3.63,13.06-3.63,21.21c0,8.27,1.12,15.4,3.35,21.33
			c2.23,5.92,5.17,10.75,8.82,14.52c3.59,3.78,7.77,6.48,12.4,8.15c4.66,1.66,9.45,2.47,14.28,2.47c4.7,0,8.84-0.64,12.42-1.91
			c3.59-1.26,6.68-2.94,9.29-4.96c2.6-2.05,4.76-4.24,6.48-6.6c1.72-2.35,3.12-4.55,4.12-6.6h0.38l-0.58,18.16
			c2.54-0.24,4.95-0.38,7.25-0.38c2.44,0,4.93,0.14,7.47,0.38c-0.12-7.38-0.25-14.57-0.38-21.62c-0.15-6.97-0.19-14.87-0.19-23.65
			c0-8.17,0.04-17.16,0.19-26.97c0.09-9.84,0.29-19.37,0.44-28.68c0.2-9.29,0.45-17.83,0.71-25.53c0.24-7.73,0.57-13.63,0.99-17.69
			c-1.7,0.24-3.2,0.47-4.51,0.64C1426.84,630.6,1425.46,630.72,1424.06,630.72L1424.06,630.72z M1506.95,733.55
			c-2.23-3.05-4.99-5.43-8.32-7.17c-3.31-1.71-6.96-3.06-10.9-3.98c-3.97-0.98-7.6-2.08-10.88-3.37c-3.32-1.27-6.09-3.04-8.35-5.24
			c-2.22-2.25-3.32-5.39-3.32-9.5c0-2.81,0.49-5.21,1.51-7.26c1.01-2.03,2.29-3.68,3.82-4.99c1.5-1.24,3.23-2.21,5.13-2.87
			c1.88-0.62,3.8-0.94,5.72-0.94c4.33,0,7.97,1.23,10.88,3.61c2.95,2.46,4.89,5.2,5.95,8.26h2.29c0.24-1.53,0.8-3.68,1.71-6.51
			c0.9-2.78,1.85-5.17,2.86-7.08c-2.95-1.02-6-2.15-9.29-3.42c-3.25-1.29-7.22-1.9-11.89-1.9c-5.13,0-9.62,0.72-13.58,2.2
			c-3.97,1.45-7.25,3.47-9.93,6c-2.67,2.55-4.71,5.57-6.11,9.08c-1.4,3.54-2.09,7.36-2.09,11.58c0,5.37,1.12,9.6,3.34,12.63
			c2.23,3.09,5,5.53,8.31,7.4c3.32,1.82,6.96,3.25,10.87,4.28c3.97,1.02,7.59,2.19,10.93,3.53c3.31,1.31,6.09,3.07,8.3,5.16
			c2.25,2.12,3.38,5.14,3.38,9.08c0,2.82-0.52,5.33-1.56,7.48c-0.99,2.19-2.38,3.95-4.09,5.36c-1.75,1.39-3.68,2.47-5.93,3.25
			c-2.21,0.77-4.53,1.13-6.97,1.13c-2.68,0-5.21-0.41-7.55-1.34c-2.34-0.88-4.45-2-6.31-3.34c-1.83-1.34-3.41-2.74-4.77-4.31
			c-1.34-1.51-2.34-2.9-2.97-4.18h-2.27c0,1.91-0.41,4.28-1.24,7.14c-0.82,2.87-1.64,5.12-2.4,6.79c2.68,1.5,5.99,2.84,9.97,3.99
			c3.93,1.13,8.83,1.7,14.7,1.7c5.35,0,10.13-0.79,14.33-2.37c4.21-1.59,7.79-3.86,10.8-6.72c3-2.87,5.29-6.08,6.88-9.64
			c1.6-3.59,2.39-7.21,2.39-10.9C1510.29,740.82,1509.19,736.63,1506.95,733.55L1506.95,733.55z M1312.75,687.94
			c-2.94-2.48-6.21-4.22-9.87-5.23c-3.64-1.02-7.24-1.52-10.81-1.52c-6.85,0-12.84,1.5-17.79,4.45c-4.97,3.03-9.23,7.27-12.79,12.73
			h-0.38c0-5.1,0.16-10.2,0.61-15.29c-1.68,0.26-3.13,0.45-4.35,0.65l-3.32,0.29c-2.19,0-5.05-0.31-8.61-0.94
			c0.64,5.47,1.06,11.38,1.25,17.65c0.18,6.37,0.28,12.37,0.28,18.11v19.91c0,5.69-0.1,11.73-0.28,18.03
			c-0.19,6.34-0.61,12.01-1.25,17.13c2.95-0.24,5.8-0.4,8.59-0.4c2.78,0,5.67,0.16,8.59,0.4c-0.65-5.12-1.07-10.79-1.23-17.15
			c-0.19-6.28-0.28-12.32-0.28-18.07v-16.25c0-9.94,2.05-17.68,6.18-23.15c4.17-5.48,10.68-8.22,19.59-8.22
			c6.53,0,11.63,2.46,15.32,7.36c3.66,4.92,5.52,12.16,5.52,21.72v11.67c0,7.38-0.16,14.6-0.48,21.62
			c-0.33,7.02-0.59,13.85-0.83,20.47c2.53-0.24,5.17-0.4,7.81-0.4c2.86,0,5.5,0.16,8.03,0.4c-0.12-1.77-0.22-3.66-0.29-5.63
			c-0.09-2-0.12-4.01-0.12-6.03v-12.42c0-6.51,0.13-12.67,0.41-18.42c0.29-5.84,0.41-11.48,0.41-16.97c0-6.62-0.92-12.08-2.78-16.35
			C1318.04,693.84,1315.67,690.46,1312.75,687.94L1312.75,687.94z M845.13,687.94c-2.91-2.48-6.21-4.22-9.81-5.23
			c-3.65-1.02-7.26-1.52-10.81-1.52c-6.88,0-12.82,1.5-17.77,4.45c-4.99,3.03-9.28,7.27-12.82,12.73h-0.4c0-5.1,0.2-10.2,0.61-15.29
			c-1.66,0.26-3.08,0.45-4.32,0.65l-3.34,0.29c-2.17,0-5.04-0.31-8.62-0.94c0.62,5.47,1.05,11.38,1.23,17.65
			c0.2,6.37,0.33,12.37,0.33,18.11v19.91c0,5.69-0.13,11.73-0.33,18.03c-0.18,6.34-0.61,12.01-1.23,17.13
			c2.95-0.24,5.82-0.4,8.59-0.4c2.81,0,5.69,0.16,8.61,0.4c-0.65-5.12-1.06-10.79-1.26-17.15c-0.16-6.28-0.28-12.32-0.28-18.07
			v-16.25c0-9.94,2.07-17.68,6.21-23.15c4.13-5.48,10.67-8.22,19.59-8.22c6.51,0,11.6,2.46,15.29,7.36
			c3.67,4.92,5.53,12.16,5.53,21.72v11.67c0,7.38-0.13,14.6-0.45,21.62c-0.29,7.02-0.59,13.85-0.83,20.47
			c2.53-0.24,5.14-0.4,7.84-0.4c2.77,0,5.45,0.16,7.98,0.4c-0.12-1.77-0.23-3.66-0.28-5.63c-0.06-2-0.11-4.01-0.11-6.03v-12.42
			c0-6.51,0.12-12.67,0.38-18.42c0.28-5.84,0.45-11.48,0.45-16.97c0-6.62-0.95-12.08-2.79-16.35
			C850.48,693.84,848.08,690.46,845.13,687.94L845.13,687.94z M527.54,720.74c-4.33,0.12-8.58,0.21-12.79,0.21
			c-4.1,0-8.26-0.09-12.53-0.21c-4.26-0.12-8.38-0.26-12.32-0.38c0.25-3.46,0.92-7.12,2.01-11.04c1.07-3.84,2.66-7.4,4.8-10.64
			c2.1-3.25,4.74-5.95,7.99-8.1c3.23-2.16,7.24-3.25,11.95-3.25c4.98,0,9,1.08,12.05,3.25c3.06,2.15,5.42,4.89,7.17,8.19
			c1.7,3.3,2.88,6.87,3.45,10.71c0.58,3.8,0.83,7.42,0.83,10.88C536.07,720.49,531.88,720.62,527.54,720.74L527.54,720.74z
			 M546.07,692.74c-3.33-3.49-7.45-6.31-12.32-8.43c-4.93-2.1-10.75-3.12-17.5-3.12c-14.29,0-25.18,4.44-32.63,13.37
			c-7.45,8.93-11.18,21.21-11.18,36.91c0,6.38,1.12,12.31,3.36,17.8c2.22,5.47,5.39,10.2,9.54,14.23c4.13,4.03,9.05,7.06,14.75,9.19
			c5.67,2.09,11.94,3.14,18.83,3.14c6.13,0,12.01-1.07,17.68-3.23c5.67-2.18,10.43-4.81,14.27-7.88l1.15-9.33l-0.96-0.59
			c-1.69,1.93-3.59,3.67-5.85,5.33c-2.23,1.67-4.61,3.12-7.16,4.32c-2.52,1.19-5.15,2.13-7.84,2.87c-2.66,0.66-5.28,1.03-7.82,1.03
			c-5.35,0-10.06-0.93-14.18-2.75c-4.07-1.88-7.51-4.38-10.3-7.5c-2.83-3.13-4.95-6.83-6.4-11.19c-1.47-4.34-2.21-9-2.21-13.95
			v-2.51c0-1.29,0.07-2.2,0.23-2.88c4.16-0.13,8.38-0.24,12.51-0.38c4.12-0.16,8.31-0.24,12.49-0.24c6.89,0,13.71,0.08,20.46,0.24
			c6.76,0.14,13.55,0.25,20.45,0.38c0.1-1.24,0.22-2.53,0.29-3.71c0.05-1.2,0.11-2.45,0.11-3.72c0-5.36-0.81-10.39-2.41-15.08
			C551.85,700.34,549.37,696.23,546.07,692.74L546.07,692.74z M623.19,720.74c-4.35,0.12-8.61,0.21-12.86,0.21
			c-4.05,0-8.23-0.09-12.49-0.21c-4.27-0.12-8.37-0.26-12.33-0.38c0.25-3.46,0.94-7.12,2.02-11.04c1.07-3.84,2.66-7.4,4.77-10.64
			c2.1-3.25,4.79-5.95,8.02-8.1c3.26-2.16,7.26-3.25,11.94-3.25c4.98,0,9.01,1.08,12.08,3.25c3.05,2.15,5.44,4.89,7.15,8.19
			c1.72,3.3,2.88,6.87,3.44,10.71c0.59,3.8,0.88,7.42,0.88,10.88C631.72,720.49,627.5,720.62,623.19,720.74L623.19,720.74z
			 M641.69,692.74c-3.34-3.49-7.42-6.31-12.34-8.43c-4.89-2.1-10.7-3.12-17.5-3.12c-14.3,0-25.15,4.44-32.58,13.37
			c-7.48,8.93-11.21,21.21-11.21,36.91c0,6.38,1.11,12.31,3.36,17.8c2.23,5.47,5.41,10.2,9.56,14.23c4.14,4.03,9.07,7.06,14.72,9.19
			c5.69,2.09,11.96,3.14,18.85,3.14c6.11,0,12.03-1.07,17.69-3.23c5.67-2.18,10.42-4.81,14.25-7.88l1.17-9.33l-0.97-0.59
			c-1.66,1.93-3.61,3.67-5.84,5.33c-2.22,1.67-4.62,3.12-7.16,4.32c-2.56,1.19-5.16,2.13-7.85,2.87c-2.67,0.66-5.28,1.03-7.85,1.03
			c-5.32,0-10.07-0.93-14.13-2.75c-4.07-1.88-7.52-4.38-10.33-7.5c-2.81-3.13-4.93-6.83-6.39-11.19c-1.47-4.34-2.21-9-2.21-13.95
			v-2.51c0-1.29,0.07-2.2,0.18-2.88c4.22-0.13,8.38-0.24,12.54-0.38c4.14-0.16,8.28-0.24,12.5-0.24c6.87,0,13.7,0.08,20.42,0.24
			c6.78,0.14,13.57,0.25,20.47,0.38c0.13-1.24,0.25-2.53,0.31-3.71c0.05-1.2,0.11-2.45,0.11-3.72c0-5.36-0.81-10.39-2.4-15.08
			C647.43,700.34,645.01,696.23,641.69,692.74L641.69,692.74z M444.23,688.25c-2.61-2.43-5.72-4.2-9.26-5.33
			c-3.57-1.15-7.46-1.72-11.66-1.72c-6.9,0-12.96,1.6-18.27,4.84c-5.27,3.25-9.47,7.97-12.5,14.09h-0.38
			c-0.65-2.7-1.86-5.23-3.62-7.55c-1.81-2.37-3.94-4.39-6.43-6.03c-2.49-1.69-5.27-3-8.33-3.94c-3.04-0.96-6.16-1.4-9.36-1.4
			c-12.25,0-21.74,5.71-28.52,17.19h-0.39c0-5.1,0.24-10.2,0.63-15.29c-1.65,0.26-3.08,0.45-4.3,0.65l-3.35,0.29
			c-2.16,0-5.03-0.31-8.61-0.94c0.62,5.47,1.02,11.38,1.24,17.65c0.17,6.37,0.29,12.37,0.29,18.11v19.91
			c0,5.69-0.11,11.73-0.29,18.03c-0.22,6.34-0.61,12.01-1.24,17.13c2.92-0.24,5.8-0.4,8.61-0.4c2.78,0,5.66,0.16,8.56,0.4
			c-0.63-5.12-1.02-10.79-1.22-17.15c-0.21-6.28-0.33-12.32-0.33-18.07v-16.25c0-9.94,2.01-17.68,5.97-23.15
			c3.94-5.48,10.13-8.22,18.55-8.22c3.18,0,6.27,0.87,9.27,2.56c3.01,1.7,5.22,3.8,6.59,6.23c0.79,1.55,1.36,2.96,1.83,4.23
			c0.45,1.26,0.78,2.89,1.04,4.85c0.25,1.99,0.43,4.7,0.49,8.07c0.06,3.37,0.1,8.05,0.1,14.05c0,7.01-0.13,14.12-0.38,21.42
			c-0.26,7.28-0.7,14.42-1.33,21.43c2.9-0.24,5.7-0.4,8.37-0.4c2.71,0,5.47,0.16,8.41,0.4c-0.26-5.37-0.47-10.32-0.63-14.83
			c-0.2-4.55-0.29-9.55-0.29-15.02c0-9.06,0.05-16.14,0.16-21.33c0.16-5.18,0.38-9.15,0.7-12.04c0.31-2.87,0.75-5.03,1.33-6.44
			c0.57-1.39,1.37-2.78,2.39-4.2c1.8-2.42,4.27-4.54,7.46-6.3c3.19-1.8,7.07-2.69,11.68-2.69c3.82,0,7,0.61,9.58,1.8
			c2.52,1.2,4.58,2.84,6.09,4.9c1.55,2.01,2.65,4.46,3.36,7.28c0.71,2.77,1.05,5.77,1.05,8.98c0,17.38-0.25,30.85-0.68,40.54
			c-0.47,9.7-0.87,16.14-1.28,19.34c1.42-0.24,2.8-0.4,4.24-0.4h8.24c1.4,0,2.82,0.16,4.22,0.4c-0.26-3.7-0.43-7.14-0.5-10.32
			c-0.08-3.19-0.12-6.5-0.12-9.99c0-5.58,0.1-10.51,0.19-14.81c0.15-4.24,0.25-8.06,0.36-11.42c0.15-3.39,0.25-6.37,0.39-8.91
			c0.11-2.53,0.18-4.88,0.18-7.08c0-5.37-0.74-9.91-2.22-13.74C448.9,693.81,446.85,690.66,444.23,688.25L444.23,688.25z
			 M701.55,770.29c-3.78,0-6.74-0.83-8.79-2.51c-2.05-1.62-3.54-3.81-4.6-6.6c-0.98-2.71-1.58-5.79-1.81-9.24
			c-0.2-3.45-0.29-6.95-0.29-10.55c0-4.16,0.03-8.93,0.09-14.28c0.06-5.38,0.17-10.49,0.28-15.38c0.13-4.93,0.29-9.18,0.47-12.72
			c0.21-3.58,0.34-5.61,0.48-6.13h9.38c2.01,0,3.93,0.05,5.74,0.11c1.78,0.07,3.46,0.19,5.12,0.3l-0.17-1.94v-4.01l0.17-2.13
			c-4.43,0.26-8.59,0.44-12.41,0.52c-3.82,0.06-6.44,0.1-7.84,0.1c0.24-4.75,0.46-9.43,0.66-14.11c0.17-4.64,0.46-9.39,0.86-14.3
			h-0.96l-15.81,6.72c0.23,4.1,0.36,8.05,0.42,11.87c0.1,3.86,0.16,7.05,0.29,9.6c-2.69,0-6.9-0.21-12.64-0.6l0.27,1.92l0.14,1.93
			l-0.14,2.2l-0.27,2.22c1.26-0.12,2.51-0.24,3.65-0.3l3.22-0.11h6.17c0,7.16-0.07,13.61-0.2,19.42c-0.14,5.78-0.3,11.1-0.47,15.87
			c-0.2,4.77-0.34,9.14-0.45,13.17c-0.15,4.01-0.21,7.76-0.21,11.17c0,7.65,1.88,13.45,5.73,17.41c3.83,3.94,9.76,5.92,17.78,5.92
			c2.41,0,4.93-0.28,7.56-0.86c2.6-0.57,4.97-1.05,7.17-1.42v-4.59c-1.26,0.39-2.77,0.69-4.5,0.95
			C703.96,770.16,702.59,770.29,701.55,770.29L701.55,770.29z M744.1,700.81c0.2-6.31,0.63-12.23,1.31-17.72
			c-3.59,0.65-6.47,0.98-8.62,0.98c-2.21,0-5.08-0.33-8.65-0.98c0.63,5.49,1.03,11.41,1.21,17.72c0.2,6.31,0.31,12.33,0.31,18.06
			v19.89c0,5.73-0.11,11.76-0.31,18.03c-0.17,6.34-0.58,12.01-1.21,17.13c2.94-0.24,5.82-0.4,8.65-0.4c2.8,0,5.67,0.16,8.62,0.4
			c-0.67-5.12-1.11-10.79-1.31-17.13c-0.22-6.27-0.31-12.3-0.31-18.03v-19.89C743.78,713.13,743.88,707.12,744.1,700.81
			L744.1,700.81z M1204.35,640.1c-2.69,0-4.98,0.96-6.89,2.86c-1.91,1.91-2.85,4.18-2.85,6.87c0,2.68,0.94,4.98,2.85,6.89
			c1.91,1.85,4.2,2.86,6.89,2.86c2.69,0,4.94-1,6.88-2.86c1.91-1.91,2.87-4.21,2.87-6.89c0-2.69-0.97-4.96-2.87-6.87
			C1209.29,641.06,1207.04,640.1,1204.35,640.1L1204.35,640.1z M736.79,640.1c-2.69,0-4.99,0.96-6.9,2.86
			c-1.89,1.91-2.84,4.18-2.84,6.87c0,2.68,0.95,4.98,2.84,6.89c1.91,1.85,4.21,2.86,6.9,2.86c2.65,0,4.95-1,6.86-2.86
			c1.89-1.91,2.84-4.21,2.84-6.89c0-2.69-0.95-4.96-2.84-6.87C741.74,641.06,739.43,640.1,736.79,640.1"/>
		<path class="st0" d="M1156.21,688.25c-2.61-2.43-5.72-4.2-9.28-5.33c-3.55-1.15-7.43-1.72-11.65-1.72
			c-6.85,0-12.96,1.6-18.24,4.84c-5.3,3.25-9.45,7.97-12.5,14.09h-0.43c-0.61-2.7-1.85-5.23-3.59-7.55
			c-1.82-2.37-3.91-4.39-6.44-6.03c-2.48-1.69-5.26-3-8.32-3.94c-3.04-0.96-6.18-1.4-9.36-1.4c-12.25,0-21.74,5.71-28.51,17.19
			h-0.38c0-5.1,0.2-10.2,0.61-15.29c-1.65,0.26-3.08,0.45-4.28,0.65l-3.36,0.29c-2.17,0-5.06-0.31-8.61-0.94
			c0.63,5.47,1.04,11.38,1.22,17.65c0.19,6.37,0.29,12.37,0.29,18.11v19.91c0,5.69-0.09,11.73-0.29,18.03
			c-0.19,6.34-0.59,12.01-1.22,17.13c2.94-0.24,5.79-0.4,8.58-0.4c2.83,0,5.68,0.16,8.61,0.4c-0.64-5.12-1.07-10.79-1.25-17.15
			c-0.18-6.28-0.29-12.32-0.29-18.07v-16.25c0-9.94,1.97-17.68,5.95-23.15c3.93-5.48,10.12-8.22,18.55-8.22
			c3.18,0,6.3,0.87,9.28,2.56c3.01,1.7,5.23,3.8,6.6,6.23c0.78,1.55,1.37,2.96,1.85,4.23c0.46,1.26,0.79,2.89,1.03,4.85
			c0.25,1.99,0.41,4.7,0.47,8.07c0.08,3.37,0.13,8.05,0.13,14.05c0,7.01-0.16,14.12-0.4,21.42c-0.26,7.28-0.68,14.42-1.32,21.43
			c2.9-0.24,5.68-0.4,8.36-0.4c2.69,0,5.46,0.16,8.37,0.4c-0.24-5.37-0.45-10.32-0.62-14.83c-0.21-4.55-0.29-9.55-0.29-15.02
			c0-9.06,0.08-16.14,0.21-21.33c0.1-5.18,0.34-9.15,0.63-12.04c0.32-2.87,0.79-5.03,1.37-6.44c0.57-1.39,1.35-2.78,2.37-4.2
			c1.81-2.42,4.3-4.54,7.45-6.3c3.21-1.8,7.08-2.69,11.69-2.69c3.8,0,6.98,0.61,9.57,1.8c2.56,1.2,4.6,2.84,6.12,4.9
			c1.53,2.01,2.62,4.46,3.36,7.28c0.67,2.77,1.03,5.77,1.03,8.98c0,17.38-0.23,30.85-0.69,40.54c-0.43,9.7-0.86,16.14-1.24,19.34
			c1.35-0.24,2.81-0.4,4.18-0.4h8.28c1.4,0,2.8,0.16,4.24,0.4c-0.29-3.7-0.45-7.14-0.55-10.32c-0.04-3.19-0.07-6.5-0.07-9.99
			c0-5.58,0.05-10.51,0.17-14.81c0.12-4.24,0.23-8.06,0.36-11.42c0.15-3.39,0.26-6.37,0.37-8.91c0.14-2.53,0.22-4.88,0.22-7.08
			c0-5.37-0.79-9.91-2.21-13.74C1160.86,693.81,1158.82,690.66,1156.21,688.25"/>
	</g>
</g>
<g id="Layer_3">
	<path class="st1" d="M1478.32,873.08l-1.94-3.25h-1.04c-0.17,1.72-0.4,3.15-0.62,4.24c-0.18,1.1-0.58,2.36-1.1,3.72
		c1.55,1.25,3.46,2.34,5.75,3.33c2.31,0.96,5.28,1.5,9,1.5c3.47,0,6.55-0.53,9.29-1.5c2.69-0.99,4.96-2.39,6.87-4.2
		c1.88-1.81,3.3-3.95,4.31-6.35c0.98-2.48,1.45-5.04,1.45-7.81c0-3.29-0.68-5.92-2.1-7.85c-1.4-1.96-3.13-3.59-5.21-4.84
		c-2.12-1.23-4.36-2.3-6.78-3.16c-2.39-0.86-4.64-1.84-6.72-2.96c-2.07-1.09-3.83-2.43-5.24-4.08c-1.4-1.59-2.06-3.78-2.06-6.56
		c0-1.63,0.24-3.11,0.82-4.49c0.57-1.35,1.36-2.52,2.41-3.54c1.02-0.96,2.28-1.74,3.67-2.25c1.38-0.55,2.92-0.81,4.59-0.81
		c1.66,0,3.12,0.29,4.29,0.84l3.08,2.12l2.06,2.72l1.23,2.72h1.04c0.39-1.74,0.74-3.15,1.07-4.25l1.37-3.25
		c-1.82-1.41-3.73-2.47-5.81-3.16c-2.11-0.67-4.57-1.01-7.43-1.01c-2.99,0-5.64,0.41-8.02,1.27c-2.39,0.81-4.43,1.98-6.11,3.46
		c-1.75,1.51-3.03,3.29-3.92,5.33c-0.9,2.02-1.34,4.32-1.34,6.83c0,3.47,0.71,6.3,2.11,8.38c1.39,2.06,3.15,3.8,5.23,5.12
		c2.06,1.35,4.32,2.48,6.76,3.34c2.38,0.93,4.66,1.89,6.71,2.94c2.11,1.1,3.85,2.43,5.24,4.02c1.39,1.64,2.1,3.79,2.1,6.54
		c0,1.78-0.29,3.46-0.89,5.04c-0.61,1.58-1.46,2.92-2.55,4.09c-1.06,1.17-2.46,2.08-4.01,2.8c-1.58,0.68-3.36,1-5.33,1
		c-1.94,0-3.66-0.29-5.18-0.84c-1.59-0.57-2.94-1.29-4.08-2.2L1478.32,873.08 M1415.91,824.73c0.15,6.15,0.25,12.29,0.25,18.48
		v15.38c0,3.92-0.06,7.81-0.22,11.59c-0.17,3.8-0.32,7.57-0.51,11.2c1.38-0.03,2.85-0.1,4.38-0.1c1.58,0,3.05,0.07,4.38,0.1
		c-0.17-3.64-0.32-7.4-0.5-11.2c-0.1-3.78-0.21-7.67-0.21-11.59v-15.38c0-6.2,0.1-12.33,0.29-18.48c1.54,0,3.14,0.04,4.83,0.05
		c1.73,0,3.41,0.09,5.11,0.17c1.71,0.08,3.33,0.2,4.89,0.29c1.6,0.13,3.04,0.3,4.24,0.43l-0.41-2.74l0.41-2.87
		c-3.92,0.14-7.78,0.23-11.51,0.31c-3.74,0.12-7.56,0.14-11.52,0.14c-3.9,0-7.76-0.02-11.49-0.14c-3.76-0.09-7.59-0.17-11.53-0.31
		l0.43,2.78l-0.43,2.83c1.24-0.13,2.65-0.31,4.23-0.43c1.58-0.08,3.25-0.2,4.95-0.29c1.7-0.08,3.37-0.17,5.07-0.17
		C1412.75,824.77,1414.37,824.73,1415.91,824.73 M1325.6,831.61c0.17,3.82,0.26,7.68,0.26,11.57v15.38c0,3.94-0.09,7.83-0.26,11.62
		c-0.16,3.8-0.32,7.57-0.54,11.2c1.41-0.03,2.87-0.1,4.42-0.1c1.57,0,2.99,0.07,4.38,0.1c-0.2-3.64-0.36-7.4-0.53-11.2
		c-0.15-3.78-0.2-7.67-0.2-11.62v-6.52h3.39c1.91,1.96,4,4.33,6.29,7.16c2.3,2.85,4.54,5.69,6.75,8.57
		c2.22,2.84,4.21,5.51,6.03,8.05c1.84,2.46,3.16,4.32,4.1,5.56l2.58-0.1h5.27l2.66,0.1c-0.81-0.8-1.93-2.01-3.31-3.64
		c-1.36-1.62-2.84-3.41-4.36-5.32c-1.56-1.94-3.17-3.95-4.83-6.03c-1.68-2.12-3.27-4.15-4.82-6.09c-1.56-1.95-2.97-3.74-4.2-5.31
		c-1.23-1.62-2.23-2.86-2.98-3.75c1.76-0.22,3.68-0.72,5.81-1.5c2.08-0.72,4.08-1.77,5.92-3.1c1.85-1.34,3.4-3.06,4.68-5.1
		c1.31-2.05,1.95-4.5,1.95-7.39c0-2.66-0.53-4.89-1.49-6.68c-1-1.81-2.32-3.26-4.03-4.33c-1.7-1.09-3.69-1.88-5.94-2.39
		c-2.27-0.47-4.65-0.7-7.14-0.7c-1.73,0-3.43,0.07-5.07,0.23c-1.67,0.19-3.4,0.23-5.13,0.23c-1.72,0-3.42-0.02-5.07-0.14
		c-1.66-0.09-3.36-0.17-5.13-0.31C1325.28,824,1325.44,827.85,1325.6,831.61 M1335.89,848.65l-2.71-0.38v-5.07
		c0-3.23,0.04-6.41,0.16-9.67c0.13-3.2,0.26-6.45,0.39-9.7c0.92-0.15,2.07-0.22,3.47-0.36c1.36-0.07,3.07-0.09,5.14-0.09
		c1.57,0,3.13,0.14,4.74,0.48c1.61,0.31,3.08,0.93,4.49,1.8c1.34,0.88,2.44,2.12,3.3,3.64c0.87,1.53,1.3,3.44,1.3,5.76
		c0,2.7-0.54,4.87-1.63,6.66c-1.09,1.75-2.5,3.15-4.15,4.19c-1.68,1.03-3.51,1.79-5.49,2.19c-1.96,0.43-3.9,0.64-5.74,0.64
		L1335.89,848.65 M1255.94,831.51c0.16,3.79,0.23,7.65,0.23,11.6v15.36c0,3.95-0.07,7.78-0.23,11.58
		c-0.12,3.77-0.34,7.56-0.49,11.34c2.75-0.03,5.43-0.1,8.13-0.1h16.21c2.65,0,5.31,0.07,7.95,0.1l-0.24-2.27l0.05-1.4l0.19-1.39
		c-1.39,0.33-3.08,0.55-4.98,0.69c-1.98,0.15-4.01,0.26-6.21,0.38c-2.18,0.08-4.39,0.16-6.66,0.16h-6.23
		c-0.07-1.12-0.09-2.82-0.12-5.03c-0.04-2.24-0.07-5.02-0.07-8.41v-8.86l0.07-2.35l0.06-1.77c1.06,0,2.53,0,4.34,0.07
		c1.81,0.05,3.75,0.07,5.82,0.1c2.05,0.01,4.1,0.1,6.13,0.21c2.04,0.11,3.85,0.29,5.41,0.46l-0.25-2.7l0.25-2.74
		c-1.32,0.08-2.67,0.2-4.15,0.32c-1.46,0.08-3.06,0.16-4.8,0.25c-1.7,0.1-3.6,0.15-5.68,0.24c-2.1,0.06-4.45,0.06-7.07,0.06
		c0-1.13,0-2.81-0.06-4.99c-0.04-2.22-0.07-4.44-0.07-6.77c0-2.24,0.07-4.16,0.16-5.92c0.09-1.71,0.18-3.52,0.22-5.44
		c2.89,0,5.43,0.05,7.5,0.15c2.09,0.05,4,0.19,5.77,0.27c1.74,0.11,3.42,0.27,5.02,0.37c1.55,0.12,3.27,0.21,5.18,0.31l-0.26-2.61
		l0.26-2.69c-2.67,0.14-5.31,0.23-7.93,0.31c-2.61,0.12-5.28,0.14-7.94,0.14c-2.7,0-5.33-0.02-7.99-0.14
		c-2.65-0.09-5.31-0.17-8.02-0.31C1255.6,823.89,1255.82,827.71,1255.94,831.51 M1181.29,831.61c0.16,3.82,0.23,7.68,0.23,11.57
		v15.38c0,3.94-0.07,7.83-0.23,11.62c-0.12,3.8-0.31,7.57-0.48,11.2c1.38-0.03,2.81-0.1,4.39-0.1c1.56,0,3.01,0.07,4.41,0.1
		c-0.2-3.64-0.36-7.4-0.51-11.2c-0.16-3.78-0.25-7.66-0.25-11.59v-4.93l3.52,0.2c1.11,0.06,2.38,0.07,3.74,0.07
		c2.12,0,4.61-0.26,7.35-0.74c2.76-0.47,5.4-1.4,7.88-2.76c2.43-1.39,4.55-3.27,6.22-5.7c1.71-2.44,2.52-5.66,2.52-9.55
		c0-2.51-0.33-4.62-1.06-6.31c-0.71-1.74-1.66-3.1-2.8-4.25c-1.16-1.12-2.47-1.99-3.88-2.6c-1.42-0.57-2.87-1.03-4.33-1.34
		c-1.45-0.31-2.83-0.47-4.17-0.52c-1.31-0.06-2.41-0.1-3.29-0.1l-2.41,0.1l-2.97,0.12l-3.12,0.15l-2.61,0.07
		c-1.39,0-2.85-0.02-4.32-0.14c-1.45-0.09-2.9-0.17-4.32-0.31C1180.98,824,1181.17,827.85,1181.29,831.61 M1195.2,850.64
		c-2.22,0-4.31-0.22-6.35-0.68v-26.56h8.08c2.28,0,4.38,0.15,6.22,0.5c1.85,0.33,3.43,0.91,4.68,1.84c1.26,0.87,2.29,2.15,2.98,3.73
		c0.73,1.62,1.09,3.7,1.09,6.26c0,3.04-0.53,5.51-1.57,7.46c-1.04,1.93-2.38,3.46-4.01,4.53c-1.65,1.14-3.43,1.88-5.42,2.3
		C1198.96,850.45,1197.05,850.64,1195.2,850.64 M1129.34,832.73c-2.38,3.82-4.91,7.73-7.63,11.82c-2.78-4.52-5.26-8.72-7.52-12.64
		c-2.24-3.88-4.37-7.82-6.37-11.84l-2.39,0.31l-2.41,0.14l-2.42-0.14l-2.42-0.31c3.29,5.21,6.48,10.4,9.61,15.43
		c3.14,5.09,6.23,10.24,9.34,15.44c-3.39,5.27-6.78,10.39-10.2,15.48c-3.4,5.03-6.84,10.05-10.43,14.96l1.74-0.1h3.12l1.76,0.1
		c2.49-4.31,5.06-8.71,7.66-13.23c2.63-4.49,5.46-8.99,8.48-13.52c3.06,4.52,5.75,9.03,8.09,13.52c2.37,4.53,4.71,8.93,7.09,13.23
		l2.52-0.1h4.99l2.51,0.1c-3.56-5.46-7.08-10.93-10.49-16.49c-3.44-5.52-6.85-11.19-10.23-16.97c3.03-4.82,6.18-9.49,9.46-14.03
		c3.26-4.52,6.63-9.12,10-13.83c-1.32,0.31-2.42,0.45-3.3,0.45c-0.91,0-2.01-0.14-3.31-0.45
		C1134.11,824.65,1131.68,828.88,1129.34,832.73 M1032.11,831.51c-0.12-3.8-0.3-7.62-0.49-11.44c2.68,0.14,5.33,0.23,8,0.31
		c2.64,0.12,5.31,0.14,8.02,0.14c2.66,0,5.3-0.02,7.93-0.14c2.6-0.09,5.26-0.17,7.96-0.31l-0.31,2.69l0.31,2.61
		c-1.92-0.1-3.65-0.19-5.24-0.31c-1.57-0.1-3.29-0.26-5.02-0.37c-1.75-0.08-3.66-0.22-5.77-0.27c-2.06-0.1-4.53-0.15-7.47-0.15
		c-0.08,1.91-0.13,3.73-0.23,5.44c-0.07,1.75-0.16,3.67-0.16,5.92c0,2.34,0.03,4.55,0.09,6.77c0.03,2.18,0.05,3.86,0.05,4.99
		c2.6,0,4.95-0.01,7.04-0.06c2.07-0.09,4.01-0.14,5.72-0.24c1.73-0.08,3.34-0.17,4.79-0.25c1.41-0.12,2.83-0.24,4.14-0.32
		l-0.26,2.74l0.26,2.7c-1.55-0.17-3.35-0.34-5.39-0.46c-2.05-0.11-4.1-0.2-6.15-0.21c-2.09-0.03-4.01-0.05-5.82-0.1
		c-1.82-0.07-3.28-0.07-4.33-0.07l-0.05,1.77l-0.09,2.35v8.86c0,3.39,0.03,6.17,0.03,8.41c0.05,2.21,0.1,3.91,0.12,5.03h6.28
		c2.27,0,4.47-0.07,6.64-0.16c2.18-0.12,4.22-0.23,6.13-0.38c1.95-0.14,3.65-0.36,5.11-0.69l-0.22,1.39l-0.06,1.4l0.28,2.27
		c-2.67-0.03-5.38-0.1-8.01-0.1h-16.22c-2.67,0-5.4,0.07-8.12,0.1c0.19-3.79,0.37-7.57,0.49-11.34c0.16-3.8,0.2-7.63,0.2-11.58
		v-15.36C1032.31,839.17,1032.27,835.3,1032.11,831.51"/>
</g>
<g id="Layer_2">
	<g>
		<path class="st0" d="M1031.67,413.15c-0.25-22.85,4.69-48.29,13.42-71.82c4.98-13.54,16.56-14.2,17.34-14.6
			c4.54-2.27,10.29-44.56,23.32-60.82c16.73-20.83,56.73-16.87,61.38-20.12c6.09-4.2,13.81-37.98,38.53-43.23
			c42.77-9.14,97.41-1.85,140.1,12.59c24.69,10.03,35.37,16.15,53.18,30.85c15.2,12.53,9.46,28.16-13.93,45.56
			c-23.43,17.37-40.76,15.44-57.65-2.52c-15.63-16.57-24.11-24.43-42.19-39.31c-20.43-16.71-41.42-21.42-62.09-11.51
			c-23.11,11.09-21.19,27.25-2.94,47.9c16.82,19.04,25.05,28.73,41.04,48.34c17.12,21,14.39,39.85-8.78,57.62
			c-23.1,17.8-42.11,15.54-57.92-6.33c-14.67-20.26-21.74-30.53-35.4-51.46c-15.34-23.45-29.31-29.81-44.69-11.97
			c-17.18,19.94-18.98,41.92-8.59,64.8c9.6,21.11,15.09,31.21,27.42,50.48c13.17,20.62,10.3,38.08-12.95,55.66
			c-23.29,17.6-40.79,18.82-49.66,1.83C1036,467.12,1032.11,450.81,1031.67,413.15"/>
		<path class="st1" d="M1087.11,541.69c-15.18-12.62-9.46-28.3,13.94-45.69c23.38-17.39,41.15-15.78,58.03,2.21
			c15.81,16.86,24.35,24.84,42.71,39.94c19.84,16.35,41.34,21.07,64.28,9.7c20.51-10.14,17.95-25.75-0.7-46.98
			c-16.65-18.85-24.77-28.42-40.58-47.84c-17.07-21.01-14.37-39.89,8.77-57.65c23.14-17.79,42.13-15.57,57.95,6.33
			c14.81,20.46,21.93,30.87,35.74,52.01c14.92,22.91,29.61,28.76,46.66,8.56c15.27-18.08,16.97-39.56,6.32-62.95
			c-9.47-20.84-14.89-30.8-27.05-49.85c-13.14-20.51-10.68-37.62,12.58-55.2c23.33-17.54,40.83-18.81,49.68-1.87
			c10.44,19.87,13.85,31.03,17.04,55.79c2.59,45.44-9.49,99.5-29.57,138.58c-12.38,24.06-46.89,25.11-51.5,29.07
			c-5.73,4.89-10.9,45.07-34.08,56.27c-18.05,8.7-61,4.69-62.13,6c-0.98,1.14-2.84,12.06-16.31,12.87c-23.43,1.45-49.1-1.99-72.44-9
			C1128.02,570.41,1112.07,562.38,1087.11,541.69"/>
	</g>
</g>
</svg>
